<?xml version="1.0" standalone="no"?>
<!DOCTYPE svg PUBLIC "-//W3C//DTD SVG 1.1//EN" "http://www.w3.org/Graphics/SVG/1.1/DTD/svg11.dtd">
<svg width="100%" height="100%" viewBox="0 0 696 767" version="1.1" xmlns="http://www.w3.org/2000/svg" xmlns:xlink="http://www.w3.org/1999/xlink" xml:space="preserve" style="fill-rule:evenodd;clip-rule:evenodd;stroke-linejoin:round;stroke-miterlimit:1.41421;">
    <g transform="matrix(4.16667,0,0,4.16667,-144.483,-1.0416)">
        <g>
            <g>
                <path d="M94.341,0.25C94.341,0.25 94.341,88.299 94.341,106.052C94.341,145.573 78.955,158.028 66.145,157.968C60.601,157.939 55.664,155.648 51.985,151.731C67.187,171.377 90.99,184.028 117.752,184.028C163.653,184.028 200.862,154.741 200.862,100.919L200.862,0.25L94.341,0.25Z" style="fill:url(#_Linear1);"/>
                <path d="M51.985,151.731C55.664,155.648 60.601,157.939 66.145,157.968C78.955,158.028 94.341,145.573 94.341,106.052C94.341,105.258 94.341,104.321 94.341,103.26L34.676,103.26C35.189,121.755 41.747,138.739 52.44,152.312C52.288,152.118 52.136,151.925 51.985,151.731Z" style="fill:url(#_Linear2);"/>
            </g>
        </g>
    </g>
    <defs>
        <linearGradient id="_Linear1" x1="0" y1="0" x2="1" y2="0" gradientUnits="userSpaceOnUse" gradientTransform="matrix(-50.6823,138.402,-138.402,-50.6823,150.688,51.1558)"><stop offset="0%" style="stop-color:rgb(221,85,88);stop-opacity:1"/><stop offset="100%" style="stop-color:rgb(151,58,99);stop-opacity:1"/></linearGradient>
        <linearGradient id="_Linear2" x1="0" y1="0" x2="1" y2="0" gradientUnits="userSpaceOnUse" gradientTransform="matrix(-68.1646,-55.3976,55.3976,-68.1646,103.206,152.032)"><stop offset="0%" style="stop-color:rgb(255,217,0);stop-opacity:1"/><stop offset="100%" style="stop-color:rgb(225,103,53);stop-opacity:1"/></linearGradient>
    </defs>
</svg>
